<svg width="17" height="16" viewBox="0 0 17 16" fill="none" xmlns="http://www.w3.org/2000/svg">
<circle cx="8.5" cy="8" r="8" fill="#27C7FF"/>
<path d="M12.3939 8.79974C12.3941 8.80009 12.3944 8.80047 12.3946 8.80082C12.6028 8.46495 12.5001 8.02164 12.1085 7.83049L6.45417 5.06232C6.35097 5.0134 6.23802 4.99275 6.1255 5.00226C6.01298 5.01175 5.90445 5.05109 5.80973 5.11672C5.71501 5.18235 5.63708 5.27219 5.583 5.37811C5.52892 5.48404 5.5004 5.6027 5.5 5.72339V11.2452C5.5 11.7669 6.05901 12.1555 6.5035 11.9387L12.0796 9.08973C12.2065 9.02452 12.315 8.92446 12.3939 8.79974Z" fill="white"/>
</svg>
