<?xml version="1.0" encoding="UTF-8"?><svg id="_レイヤー_2" xmlns="http://www.w3.org/2000/svg" xmlns:xlink="http://www.w3.org/1999/xlink" viewBox="0 0 780 780"><defs><style>.cls-1{fill:#fff;}.cls-1,.cls-2{stroke-width:0px;}.cls-2{fill:url(#_名称未設定グラデーション_8);}</style><linearGradient id="_名称未設定グラデーション_8" x1="390" y1="418.98" x2="390" y2="1119.45" gradientUnits="userSpaceOnUse"><stop offset="0" stop-color="#000" stop-opacity="0"/><stop offset="1" stop-color="#000"/></linearGradient></defs><g id="ArtBoard"><g id="CopyWriting"><rect id="Grad" class="cls-2" width="780" height="780"/><path class="cls-1" d="M86.74,594.38c0,2.41-1.39,6.67-3.52,11.03-2.41,4.82-4.26,7.51-8.53,12.7.09,1.02.46,2.5,1.48,5.01.09.37.19.65.19.83,0,1.21-2.6,3.43-4.17,3.43-.93,0-1.21-.56-2.32-5.28-4.82,4.08-5.38,4.54-7.88,6.21-4.54,2.97-8.9,4.63-11.87,4.63-3.8,0-6.67-3.62-6.67-8.16,0-5.28,2.6-11.49,7.14-16.87,4.45-5.38,8.44-8.34,18.08-13.25.09-3.25.28-5.47.65-9.27-3.8,1.02-6.77,1.48-9.27,1.48-5.01,0-10.01-3.89-10.01-7.88,0-.37.19-.65.46-.65.09,0,.19.09.37.46.37.65,1.95,2.04,2.87,2.5,1.85.93,4.08,1.39,7.23,1.39,2.6,0,3.15-.09,8.53-1.39.19-2.97.65-7.42.93-10.1.09-1.11.19-1.95.19-2.59,0-3.62-2.04-5.38-6.03-5.28-.46,0-.65-.19-.65-.56,0-.74,3.24-1.85,5.75-1.85,3.99,0,8.62,2.87,8.62,5.38q0,.56-.74,2.78c-2.13,6.49-2.32,7.14-3.06,10.85,7.79-2.5,11.49-4.63,12.42-7.23,1.85.28,2.5.28,3.34.28,2.13.09,3.06.74,3.06,2.22,0,1.76-1.95,3.15-8.16,5.56-3.99,1.48-6.86,2.5-10.85,3.62-.46,3.06-.65,4.73-.93,8.81,7.42-2.04,10.1-2.5,14.83-2.5,14.74,0,24.38,8.53,24.38,21.6s-11.12,24.29-30.22,29.01c-3.34.83-10.85,2.13-12.05,2.13-.74,0-1.21-.46-1.21-1.11,0-.28.28-.46.74-.56,4.36-.83,8.44-1.95,12.61-3.52,14.65-5.56,22.53-15.29,22.53-27.72,0-10.66-7.14-17.43-18.35-17.61.09.65.09,1.11.09,1.48ZM68.57,597.62c-8.81,5.19-12.89,8.81-16.04,14.46-1.85,3.24-3.06,7.42-3.06,10.29,0,3.06,1.11,4.45,3.71,4.45,4.08,0,9.83-3.06,16.22-8.62-.74-7.97-.83-11.31-.83-20.58ZM73.21,596.14c-.19,2.6-.28,4.08-.28,7.42,0,3.89.09,5.28.65,10.47,5.65-7.32,10.29-16.5,10.38-20.67-4.64.65-6.49,1.21-10.75,2.78Z"/><path class="cls-1" d="M145.14,568.24c-.19,0-.37-.19-.37-.37,0-1.21,4.45-3.52,6.67-3.52,2.97,0,7.04,2.13,7.04,3.71,0,.19-.09.56-.19.93-.37,1.11-.74,2.41-1.3,4.82,5.01,2.87,7.88,4.08,9.73,4.08h.46c.28-.09.46-.09.46-.09.74,0,1.39.74,1.39,1.67,0,2.78-3.8,5.28-15.11,9.92-2.6,12.98-6.58,27.9-11.59,42.64-1.85,5.65-3.34,7.51-5.93,7.51-2.41,0-4.54-1.67-4.54-3.71,0-1.21.46-2.22,1.67-4.08,4.82-6.58,12.14-26.05,15.3-40.69-5.84,2.04-10.48,3.24-12.7,3.24-4.63,0-9.27-4.82-9.27-9.64,0-.28.19-.56.37-.56.28,0,.56.18.83.74,1.58,2.69,4.08,3.99,7.79,3.99,3.34,0,8.06-.93,14.09-2.87,1.02-5.84,1.39-9.36,1.39-12.88,0-3.71-1.11-5.01-4.36-5.01-.37,0-1.21.09-1.58.19h-.28ZM162.1,579.83c0-.65-1.02-1.58-5.38-4.91-.19.65-.37,1.3-.37,1.48-.09.56-.19,1.11-1.58,8.16,3.89-1.67,7.32-3.8,7.32-4.73ZM168.87,611.99c0,.19,0,.37-.09.65-.56,1.58-.93,4.26-.93,6.12,0,7.69,4.82,10.75,17.06,10.75,3.99,0,7.42-.28,9.73-.93.74-.19,1.3-.28,1.67-.28,2.04,0,3.89,1.76,3.89,3.71,0,3.06-2.87,4.17-11.22,4.17-16.31,0-24.01-4.63-24.01-14.37,0-3.99,2.04-10.38,3.34-10.38.28,0,.56.28.56.56ZM197.7,596.23c0,1.58-.83,2.69-2.04,2.69-.28,0-.46-.09-.93-.28-1.48-.65-3.62-1.11-5.47-1.11-2.32,0-6.58,1.02-9.46,2.22-.09.09-.28.09-.37.09-.19,0-.46-.28-.46-.46,0-.37,1.76-1.58,4.91-3.15,2.87-1.48,3.52-1.95,3.52-2.41,0-1.21-3.99-2.41-7.88-2.41-3.06,0-6.03.74-7.79,1.95q-.37.28-.56.28c-.19,0-.46-.28-.46-.46,0-.28,1.11-1.48,2.22-2.22,2.41-1.85,6.77-3.06,10.57-3.06,7.6,0,14.18,3.89,14.18,8.34Z"/><path class="cls-1" d="M234.96,580.66c-2.41,1.48-3.43,2.97-3.43,5.1,0,1.3.19,1.85.74,2.5.65.74.93,1.3.93,2.13,0,1.11,0,1.3-1.21,6.3-1.48,6.3-2.6,12.7-2.6,15.11s1.02,4.08,2.41,4.08c.74,0,1.85-.74,2.97-1.85,6.86-7.23,14.09-10.66,22.25-10.66,9.46,0,15.76,5.84,15.76,14.55,0,9.36-6.77,16.5-19.28,20.3-4.91,1.58-16.69,3.34-21.6,3.34-1.02,0-1.76-.56-1.76-1.3,0-.37.19-.37,1.39-.56,7.42-.65,14.46-2.41,20.12-5.1,8.25-3.8,13.9-10.85,13.9-17.43,0-6.21-4.26-10.1-11.12-10.1-5.19,0-10.29,2.22-14.74,6.49-2.6,2.5-3.71,4.63-4.64,8.71-.46,1.76-1.21,2.6-2.32,2.6-1.48,0-4.91-1.58-6.21-2.87-1.58-1.48-2.23-3.52-2.23-6.95,0-2.32.28-4.63,1.21-8.99.93-4.73,1.21-7.42,1.21-10.94,0-.56,0-2.04-.09-2.69-.09-1.48-.09-2.5-.09-2.97,0-5.1,3.06-8.99,8.81-11.22,2.78-1.11,6.67-1.95,9.55-2.13.65-.09.93-.19.93-.46,0-.19-.19-.28-.46-.37-5.75-1.02-9.27-5.19-9.27-10.94,0-2.04.56-3.34,1.39-3.34.37,0,.46.09.46.74.28,5.28,3.99,7.69,12.33,8.07,1.67,0,2.32.28,3.43,1.3,1.48,1.39,2.69,3.99,2.69,5.75,0,1.48-1.02,2.59-2.41,2.59-.28,0-.83-.09-1.39-.18-3.24-.74-6.03-1.11-7.51-1.11-3.43,0-7.69,1.11-10.1,2.5Z"/><path class="cls-1" d="M350.74,617.83c0,1.58-2.13,5.01-5.28,8.62-7.32,8.16-15.67,12.24-25.4,12.24-6.58,0-11.77-1.95-15.48-5.84-3.89-4.17-5.56-9.64-5.56-18.08,0-5.56.09-6.77,1.85-30.96q.56-7.79.56-8.9c0-5.93-1.39-8.44-4.54-8.44-.56,0-.83-.18-.83-.46,0-1.02,1.95-1.85,4.08-1.85,4.73,0,9.27,5.38,9.27,11.12,0,1.39,0,1.48-1.39,7.04-1.76,7.42-3.89,24.66-3.89,31.79,0,12.98,5.1,18.82,16.69,18.82,6.67,0,13.81-2.59,20.3-7.51,3.34-2.41,6.3-5.28,7.88-7.51.37-.65.74-.93,1.11-.93s.65.37.65.83Z"/><path class="cls-1" d="M368.63,574.17c-.19.09-.28.09-.37.09-.19,0-.37-.19-.37-.37,0-.56,1.58-1.11,3.34-1.11,5.28,0,10.1,4.08,10.1,8.53,0,1.76-.28,3.43-1.21,7.51-1.3,5.75-1.67,9.36-1.67,14.74,0,7.04,1.39,12.33,4.26,16.22,1.58,2.13,3.71,3.71,5.1,3.71,1.21,0,1.48-.28,4.26-6.49,4.26-9.18,5.93-12.24,6.67-12.24.28,0,.65.37.65.74s-.09.83-.37,1.39c-1.95,4.45-4.17,13.16-4.17,16.59,0,2.22.65,4.45,1.67,5.84.56.93.65,1.02.65,1.48,0,1.11-1.67,2.22-3.43,2.13-2.69-.09-6.86-1.85-9.73-4.08-6.67-5.19-10.57-15.85-10.57-28.55,0-3.99.37-10.01.83-14.65.09-1.39.19-2.5.19-3.34,0-4.17-2.78-8.16-5.56-8.16h-.28ZM413.31,590.76c0-.74,2.97-1.39,6.21-1.39,10.29,0,21.04,9.83,21.04,19.28,0,3.71-2.22,6.3-5.38,6.3-1.67,0-2.32-.83-2.32-3.15.09-11.31-7.88-20.58-17.71-20.58-1.76,0-1.85,0-1.85-.46Z"/><path class="cls-1" d="M468.84,640.63h-6.49c.18-3.43.28-8.9.28-16.22v-44.31c0-10.29-.09-11.77-.28-14.74,2.5.09,4.73.19,7.88.19h38.1c3.15,0,5.38-.09,7.88-.19-.19,2.97-.28,9.18-.28,14.74v42.92c0,7.79.09,12.79.28,16.31h-6.49v-5.93h-40.88v7.23ZM509.72,571.3h-40.88v24.84h40.88v-24.84ZM509.72,602.07h-40.88v25.49h40.88v-25.49Z"/><path class="cls-1" d="M587.03,572.69c2.97-3.71,5.47-7.88,8.25-13.53l6.4,2.5c.83.37,1.11.56,1.11,1.02,0,.65-.18.74-2.13,1.39-.83.93-1.21,1.3-4.36,5.28-.56.74-1.21,1.58-2.87,3.34h5.01c6.3,0,13.63-.19,18.35-.37-.09,3.34-.09,5.01-.09,7.04v3.15c0,2.32.09,5.1.19,8.06h-6.77c.19-2.69.28-5.93.28-8.06v-4.26h-66.19v4.26c0,2.13.09,5.38.28,8.06h-6.77c.19-2.97.28-5.75.28-8.06v-3.15c0-2.04-.09-3.71-.19-7.04,4.73.19,12.05.37,18.35.37h3.34c-2.13-3.71-4.63-7.23-7.23-10.47l4.54-2.69c3.99,4.08,5.47,6.12,10.1,13.16h7.32v-9.36c0-2.6-.09-4.63-.19-5.93l6.49.65c1.21.09,1.76.37,1.76.93s-.56,1.11-1.85,1.85v11.87h6.58ZM560.98,602.91v3.52h-6.12c.09-2.32.09-4.91.09-7.79v-6.3c0-5.19,0-7.04-.09-8.71,3.15.19,6.03.19,10.1.19h24.57c4.08,0,6.86,0,10.1-.19-.09,1.58-.19,3.43-.19,7.97v5.56c0,3.15.09,5.93.19,8.25h-6.21v-2.5h-13.53v8.06h13.26c4.91,0,10.2-.09,13.81-.37-.09,1.85-.19,6.77-.19,9.27v3.06c0,1.76,0,2.97.09,5.75,0,.93.09,2.41.09,2.97,0,6.58-2.97,8.16-15.48,8.34-.28-3.62-.37-4.08-1.76-7.6,2.97.28,4.26.37,6.86.37,3.52,0,3.99-.46,3.99-3.89v-12.33h-20.67v13.35c0,6.03.09,10.75.28,13.53h-6.49c.19-3.25.19-7.6.19-13.53v-13.35h-19.84v7.23c0,10.57.18,13.53.28,15.94h-6.86c.09-2.6.28-10.57.28-12.89v-2.41c0-9.83-.09-11.68-.19-13.81,3.62.28,8.9.37,13.81.37h12.51v-8.06h-12.88ZM593.42,597.34v-7.97h-32.44v7.97h32.44Z"/><path class="cls-1" d="M651.82,603q1.39-2.97,1.85-2.97c.37,0,.65.37.65.83,0,.19-.09.37-.65,2.04-3.24,8.44-5.47,18.72-5.47,24.84,0,2.6.37,4.45,1.3,6.4.37.83.46,1.11.46,1.48,0,1.48-1.48,3.06-2.78,3.06-2.04,0-4.45-1.95-6.21-4.82-2.97-5.1-4.26-11.22-4.26-20.67,0-7.88,1.39-16.41,4.54-28.18,1.21-4.17,1.58-6.67,1.58-9.27,0-3.89-.93-6.21-3.24-7.88-.19-.19-.28-.28-.28-.46,0-.28.28-.46.56-.46,1.48-.19,5.56,2.04,7.23,3.8,1.85,2.04,2.97,4.45,2.97,6.58,0,1.67-.46,3.52-1.76,6.49-5.56,13.26-7.32,20.12-7.32,29.01,0,6.12,1.02,10.85,2.22,10.85.65,0,1.21-.93,2.13-3.71.56-1.48,1.02-2.69,1.21-3.34l2.22-5.75,3.06-7.88ZM677.59,569.72c-.19.09-.28.09-.37.09s-.28-.19-.28-.28c0-.19.28-.46,1.21-1.21,1.58-1.39,3.25-2.13,4.63-2.13,1.67,0,3.8,1.02,6.4,3.06,1.21.93,1.67,1.67,1.67,2.6,0,.28-.09.56-.28,1.02-.65,1.21-.83,1.85-1.3,4.08,2.78,2.41,4.91,3.34,7.69,3.34.65,0,1.21,0,1.58-.09.56-.09,1.02-.19,1.21-.19,1.21,0,3.06,1.67,3.06,2.78,0,1.3-1.67,3.34-3.99,4.73-2.87,1.85-5.19,2.87-10.2,4.45.09,1.3.09,2.5.19,2.87,0,.93.19,2.97.46,6.12.65,7.88,1.02,13.26,1.02,17.52,11.31,3.15,17.61,7.6,17.61,12.42,0,2.04-1.48,3.52-3.52,3.52-1.39,0-2.41-.65-3.62-2.32-3.24-4.17-6.21-6.86-10.57-9.36-1.3,8.06-6.58,12.33-15.48,12.33-8.06,0-14.09-3.99-14.09-9.36s6.3-9.08,15.76-9.08c2.87,0,4.73.19,8.44.83,0-2.97,0-4.17-.28-8.99-.46-8.25-.56-9.73-.65-15.48-5.65,1.02-9.83,1.48-12.98,1.48s-5.47-1.21-6.86-3.52c-.74-1.21-1.39-3.71-1.39-5.28,0-.28.19-.56.46-.56s.46.19.56.65c.93,2.22,3.89,3.52,8.44,3.52,3.15,0,7.51-.46,11.77-1.21-.09-7.51-.18-12.61-.46-13.9-.46-2.87-2.32-4.45-5.28-4.45h-.56ZM676.02,619.78c-6.58,0-11.12,2.41-11.12,5.84,0,2.59,2.78,4.26,7.05,4.26,8.43,0,11.49-2.32,12.42-9.08-3.71-.74-6.12-1.02-8.34-1.02ZM688.35,587.24c3.62-1.21,6.03-2.6,6.03-3.34,0-.28-.19-.56-.65-.93-1.11-.93-2.78-2.69-4.73-4.63-.46,3.15-.65,5.01-.65,8.9Z"/><path class="cls-1" d="M722.09,620.24c11.31,2.6,18.91,8.53,18.91,14.65,0,2.78-1.95,4.91-4.45,4.91-1.11,0-2.22-.46-2.97-1.3q-.74-.93-1.85-5.01c-1.85-5.75-3.52-7.69-10.29-11.96l.65-1.3Z"/><path class="cls-1" d="M81.09,716.35c-1.39,3.99-2.87,5.47-5.19,5.47-5.1,0-9.83-6.21-9.83-12.98,0-7.97,4.82-14.46,10.75-14.46,1.3,0,2.13.19,3.71.83-.09-2.5-.09-3.99-.09-5.65,0-2.13,0-2.5.09-4.73-13.81,2.13-22.43,4.45-30.13,8.16-2.13,1.02-2.69,1.21-3.71,1.21-1.39,0-3.34-1.11-5.56-3.15-1.58-1.48-2.13-3.34-2.13-6.95,0-.74.19-1.11.56-1.11.28,0,.37.09.46.46.65,2.41,3.06,3.99,6.12,3.99,2.04,0,3.71-.28,12.51-1.95,9.27-1.76,15.57-2.69,21.78-3.34-.46-12.14-.46-13.07-1.11-14.55-1.02-2.13-2.6-3.06-5.28-3.15-.37,0-.65-.09-.65-.37,0-.74,4.36-2.5,6.4-2.5,2.6,0,8.34,3.61,8.34,5.19,0,.37-.09.65-.56,1.67-1.39,3.34-1.58,3.99-2.23,13.07,4.82-.83,5.93-.93,12.42-1.85-1.76-1.58-3.71-2.97-5.93-4.54-.83-.56-1.02-.74-1.02-1.02s.28-.56.65-.56c.19,0,.37.09.65.28,5.56,2.97,8.99,4.26,12.42,4.54,3.52.28,4.63.65,6.67,2.04,1.48,1.02,2.5,2.32,2.5,3.34,0,1.11-1.02,2.32-2.13,2.32-.28,0-.83-.09-1.39-.19-3.52-.93-12.51-1.95-16.59-1.95-2.22,0-4.08.09-8.44.56-.46,6.12-.56,8.06-.56,10.01v3.06c3.06,3.06,3.8,5.75,3.8,13.63,0,12.51-3.62,20.3-12.14,26.33-4.08,2.87-10.2,5.19-13.63,5.19-.46,0-.83-.28-.83-.74,0-.37.19-.46.93-.74,11.59-3.99,17.98-12.14,19.19-24.56l-.83-.28ZM72.74,699.75c-1.58,1.85-2.69,5.1-2.69,8.25,0,5.1,2.41,9.08,5.38,9.08,3.15,0,4.63-4.36,4.63-14,0-3.61-.83-5.28-2.87-5.47-1.21-.09-3.34.93-4.45,2.13Z"/><path class="cls-1" d="M143.56,665.09c-.28,0-.46-.09-.46-.28,0-.93,2.23-1.76,4.82-1.76,4.45,0,10.57,4.73,10.57,8.25,0,1.11-.37,1.67-1.95,2.78-2.6,1.67-5.38,4.36-11.77,11.31-5.56,5.93-6.58,7.14-7.79,8.99-.93,1.67-1.58,3.99-1.58,6.21,0,2.59.65,4.08,3.06,7.04,8.25,9.92,12.24,15.02,14.18,17.89,2.87,4.26,4.82,9.46,4.82,12.61,0,2.97-1.67,5.01-4.08,5.01s-3.15-1.21-4.17-5.75c-1.02-5.66-5.47-14.55-12.05-23.92-5.38-7.88-6.21-9.64-6.21-13.44,0-4.17,2.13-7.88,10.75-19,6.49-8.25,7.42-9.83,7.42-12.24,0-1.67-2.32-3.8-4.17-3.8-.19,0-.46,0-.83.09h-.56ZM172.21,692.62c0,1.67-1.48,3.25-3.15,3.25-.93,0-1.3-.37-2.41-2.32-1.67-3.15-5.47-5.93-9.18-6.95-.28-.09-.37-.18-.37-.37,0-.46,1.39-.74,3.34-.74,5.93,0,11.77,3.52,11.77,7.14ZM180.18,686.13c0,1.76-1.48,3.34-3.15,3.34-.83,0-1.39-.46-2.04-1.67-1.48-3.15-5.28-6.21-9.08-7.51-.65-.09-.83-.28-.83-.56,0-.37,1.11-.65,3.06-.65,6.12,0,12.05,3.52,12.05,7.04Z"/><path class="cls-1" d="M234.13,731.74c2.97,0,5.28,1.85,5.28,4.26s-1.95,3.71-5.56,3.71c-15.57,0-26.7-8.16-26.7-19.56,0-4.63.83-7.04,4.82-13.81-7.14,2.87-13.16,6.95-17.24,11.68-.93,1.11-1.58,1.48-2.41,1.48-1.48,0-2.23-1.76-2.23-5.47,0-2.69.37-3.34,4.91-8.16,1.11-1.11,3.24-3.43,5.47-5.93,2.6-2.97,5.28-5.93,8.16-9.18l9.73-10.57c1.95-2.22,3.24-3.71,3.52-3.89,2.22-2.13,2.6-2.78,2.6-4.26,0-1.67-1.11-3.25-2.41-3.25-.83,0-2.04.74-8.16,4.91-6.03,4.17-7.04,4.73-8.44,4.73-2.6,0-5.28-3.06-5.28-6.03,0-2.5.56-4.63,1.21-4.63.28,0,.37.09.37.65.19,1.95,2.22,3.99,3.99,3.99,1.48,0,10.29-3.71,15.94-6.67.83-.46,1.3-.56,2.13-.56,3.52,0,9.46,5.84,9.46,9.36,0,1.58-.83,2.69-2.78,3.71-10.47,5.28-17.15,10.66-25.12,20.67-3.06,3.8-6.21,8.34-6.21,9.08,0,.28.56.56,1.11.56.65,0,1.21-.19,2.41-.74,8.62-4.17,16.31-7.23,25.49-10.01,7.79-2.41,12.14-3.52,13.35-3.52,1.39,0,3.06,1.11,4.54,2.97,1.39,1.67,2.13,2.97,2.13,3.71s-1.11,1.48-2.41,1.48c-.46,0-1.21-.09-2.04-.19-1.85-.28-3.8-.37-5.84-.37-7.69,0-16.5,2.04-20.86,4.73-3.71,2.32-6.58,8.06-6.58,13.25,0,3.89,2.13,7.42,5.75,9.46,2.87,1.58,7.6,2.5,13.16,2.5,1.3,0,1.95,0,3.06-.09h1.67Z"/><path class="cls-1" d="M286.23,703.83q1.39-2.97,1.85-2.97c.37,0,.65.37.65.83,0,.19-.09.37-.65,2.04-3.24,8.62-5.47,18.72-5.47,24.84,0,2.6.37,4.45,1.3,6.4.37.83.46,1.11.46,1.48,0,1.48-1.48,3.06-2.78,3.06-2.04,0-4.45-1.95-6.21-4.82-2.97-5.1-4.26-11.22-4.26-20.67,0-7.88,1.39-16.5,4.54-28.18,1.21-4.17,1.58-6.58,1.58-9.27,0-3.89-.93-6.21-3.24-7.88-.19-.18-.28-.28-.28-.46s.28-.46.56-.46c1.39-.19,5.56,2.04,7.23,3.8,1.85,2.04,2.97,4.45,2.97,6.67,0,1.58-.46,3.43-1.76,6.4-5.56,13.16-7.32,20.21-7.32,29.01,0,6.12,1.02,10.84,2.22,10.84.65,0,1.21-.93,2.13-3.71.56-1.48,1.02-2.69,1.2-3.34l2.23-5.75,3.06-7.88ZM312,670.56c-.19.09-.28.09-.37.09s-.28-.19-.28-.28c0-.19.37-.56,1.21-1.21,1.58-1.39,3.24-2.13,4.63-2.13,1.67,0,3.8,1.02,6.4,3.06,1.21,1.02,1.67,1.67,1.67,2.6,0,.37-.09.56-.28,1.02-.65,1.21-.83,1.85-1.3,4.08,2.78,2.41,4.91,3.34,7.69,3.34.74,0,1.21,0,1.58-.09.56-.09.93-.09,1.21-.09,1.21,0,3.06,1.67,3.06,2.69,0,1.39-1.67,3.34-3.99,4.82-2.87,1.85-5.19,2.78-10.2,4.36.09,1.3.09,2.6.19,2.97,0,.83.19,2.97.46,6.03.65,7.88,1.02,13.35,1.02,17.52,11.31,3.15,17.61,7.6,17.61,12.42,0,2.04-1.39,3.52-3.52,3.52-1.39,0-2.41-.65-3.62-2.32-3.15-4.17-6.21-6.77-10.57-9.36-1.3,8.06-6.58,12.33-15.48,12.33-8.16,0-14.09-3.99-14.09-9.36s6.3-9.08,15.85-9.08c2.69,0,4.73.19,8.34.83,0-2.97,0-4.17-.28-8.99-.46-8.25-.56-9.73-.65-15.48-5.47,1.02-9.73,1.48-12.98,1.48s-5.47-1.11-6.86-3.52c-.74-1.21-1.39-3.71-1.39-5.28,0-.28.19-.56.46-.56s.37.19.56.56c.93,2.32,3.89,3.62,8.44,3.62,3.06,0,7.6-.46,11.77-1.11-.09-7.6-.19-12.7-.46-14-.46-2.87-2.32-4.45-5.28-4.45h-.56ZM310.42,720.61c-6.58,0-11.12,2.41-11.12,5.84,0,2.6,2.78,4.36,7.04,4.36,8.44,0,11.49-2.32,12.42-9.18-3.52-.74-6.12-1.02-8.34-1.02ZM322.75,688.08c3.62-1.21,6.03-2.5,6.03-3.34,0-.28-.19-.56-.65-.83-.93-.83-2.87-2.69-4.73-4.73-.46,3.24-.65,5-.65,8.9ZM341.47,672.41c0,1.67-1.58,3.25-3.24,3.25-.74,0-1.21-.37-1.67-1.21-2.13-3.99-5.56-6.77-9.92-8.07-.28,0-.37-.09-.37-.28,0-.46,1.02-.74,2.78-.74,6.49,0,12.42,3.34,12.42,7.04ZM349.07,666.29c0,1.58-1.67,3.24-3.24,3.24-.83,0-1.39-.37-1.95-1.48-1.58-3.43-5.56-6.67-9.64-7.88-.56-.09-.65-.19-.65-.46,0-.37,1.48-.65,3.24-.65,6.21,0,12.24,3.52,12.24,7.23Z"/><path class="cls-1" d="M372.53,711.43q3.52-9.46,4.08-9.46c.37,0,.74.46.74.83,0,.19,0,.28-.09.56-.37.65-1.76,5.38-2.41,7.79-1.48,5.75-2.5,12.24-2.5,16.22,0,1.95.28,3.43,1.11,5.38.28.83.37,1.2.37,1.76,0,1.95-1.3,3.43-2.87,3.43-5.28,0-10.38-12.33-10.38-25.21,0-6.12.83-11.4,4.17-25.77,1.39-6.21,1.76-8.25,1.76-10.94,0-3.71-1.02-6.49-2.97-7.88-.28-.28-.37-.37-.37-.56s.19-.28.56-.28c1.48,0,3.62.93,5.56,2.5,2.97,2.41,4.36,5.1,4.36,8.81,0,3.06-.28,3.89-4.17,13.72-3.43,8.71-4.63,13.72-4.63,19.93s1.11,10.57,2.69,10.57c.93,0,1.48-.65,2.13-2.78l2.87-8.62ZM390.7,708.19s0,.09-.09.19c-.09.56-.28,1.95-.28,2.97,0,7.88,5.65,11.77,16.96,11.77,4.17,0,8.62-.65,12.98-1.76,2.13-.56,2.6-.65,3.43-.65,2.5,0,4.26,1.58,4.26,3.8,0,3.52-4.91,5.28-14.18,5.28-8.53,0-15.48-1.21-19-3.43-4.08-2.6-6.58-7.14-6.58-12.14,0-3.99.74-6.49,1.95-6.49.28,0,.56.18.56.46ZM421.94,683.07c0,1.21-1.3,2.04-3.71,2.32-4.63.65-11.68,1.21-15.94,1.21-4.91,0-8.25-1.21-11.31-4.26-.93-.93-1.85-2.69-1.85-3.43,0-.19.28-.37.46-.37s.37.09.56.46c1.02,1.76,4.17,2.87,7.88,2.87,5.56,0,12.7-1.58,16.69-3.62.65-.37.93-.46,1.48-.46,2.04,0,5.75,3.34,5.75,5.28Z"/><path class="cls-1" d="M447.43,674.17c-.19.09-.28.09-.37.09-.19,0-.37-.19-.37-.37,0-.56,1.58-1.11,3.34-1.11,5.28,0,10.1,4.08,10.1,8.53,0,1.76-.28,3.43-1.21,7.51-1.3,5.75-1.67,9.36-1.67,14.74,0,7.04,1.39,12.33,4.26,16.22,1.58,2.13,3.71,3.71,5.1,3.71,1.21,0,1.48-.28,4.26-6.49,4.26-9.18,5.93-12.24,6.67-12.24.28,0,.65.37.65.74s-.09.83-.37,1.39c-1.95,4.45-4.17,13.16-4.17,16.59,0,2.22.65,4.45,1.67,5.84.56.93.65,1.02.65,1.48,0,1.11-1.67,2.22-3.43,2.13-2.69-.09-6.86-1.85-9.73-4.08-6.67-5.19-10.57-15.85-10.57-28.55,0-3.99.37-10.01.83-14.65.09-1.39.19-2.5.19-3.34,0-4.17-2.78-8.16-5.56-8.16h-.28ZM492.11,690.76c0-.74,2.97-1.39,6.21-1.39,10.29,0,21.04,9.83,21.04,19.28,0,3.71-2.22,6.3-5.38,6.3-1.67,0-2.32-.83-2.32-3.15.09-11.31-7.88-20.58-17.71-20.58-1.76,0-1.85,0-1.85-.46Z"/><path class="cls-1" d="M578.87,730.44c4.17-2.04,5.93-3.43,7.69-6.3,1.76-2.97,2.78-6.49,2.78-10.2,0-9.18-5.1-14.28-14.28-14.28-8.53,0-14.46,2.97-20.49,10.29-3.52,4.26-4.45,5.84-6.95,10.94-.74,1.67-1.85,2.5-3.34,2.5-1.58,0-3.99-2.78-3.99-4.73,0-1.02.74-2.22,2.6-4.08,12.24-12.7,13.07-13.72,26.33-31.33,5.38-6.95,5.47-7.04,5.47-8.53,0-1.3-.83-2.13-2.04-2.13-2.87,0-5.1,1.21-14.65,7.88-1.76,1.3-2.6,1.67-3.52,1.67-1.21,0-3.15-1.21-4.36-2.69-1.21-1.48-1.67-2.97-1.67-5,0-1.67.19-2.22.74-2.22.28,0,.28.09.46.83.19,1.3,1.67,2.32,3.52,2.32,3.8,0,15.11-3.99,19.19-6.77,1.21-.93,1.85-1.11,3.15-1.11,3.71,0,10.29,4.45,10.29,7.05,0,.93-.46,1.58-1.48,2.04-3.99,1.76-9.18,6.4-16.78,14.92-4.54,5.1-5.84,6.77-5.84,7.51,0,.37.28.83.56.83.09,0,.28-.09.46-.19.09,0,.28-.09.46-.18.18-.09.65-.28,1.3-.56,4.54-1.85,8.81-2.78,13.35-2.78,10.94,0,18.72,7.51,18.72,17.98,0,6.12-2.5,11.68-6.95,15.29-5.28,4.36-12.79,6.95-20.02,6.95-4.36,0-8.62-1.3-11.12-3.43-1.76-1.48-2.5-3.15-2.5-5.56,0-4.26,3.62-7.04,9.08-7.04,6.21,0,10.75,3.06,13.44,9.18l.09.28.28.65ZM572.94,731.83c-1.02-5.65-3.71-8.53-7.97-8.53-2.6,0-4.26,1.48-4.26,3.71,0,3.06,3.52,5.1,8.9,5.1,1.02,0,1.39,0,2.78-.19l.56-.09Z"/><path class="cls-1" d="M636.48,728.49c0,6.4-5.01,11.31-11.49,11.31-6.03,0-11.12-5.19-11.12-11.31s5.1-11.22,11.31-11.22,11.31,5,11.31,11.22ZM617.76,728.77c0,3.8,3.43,7.14,7.42,7.14s7.42-3.43,7.42-7.42-3.34-7.42-7.42-7.42-7.42,3.43-7.42,7.69Z"/></g></g></svg>